<svg xmlns="http://www.w3.org/2000/svg" xmlns:xlink="http://www.w3.org/1999/xlink" viewBox="0 0 48.07 48.07"><defs><style>.cls-1{fill:#414042;}.cls-2{fill:none;}.cls-2,.cls-3,.cls-4,.cls-5{stroke:#fff;stroke-miterlimit:10;}.cls-3{fill:url(#linear-gradient);}.cls-4{fill:url(#linear-gradient-2);}.cls-5{fill:url(#linear-gradient-3);}</style><linearGradient id="linear-gradient" x1="26.77" y1="13.7" x2="1.86" y2="24.18" gradientTransform="translate(1.08 7.68) rotate(0.81)" gradientUnits="userSpaceOnUse"><stop offset="0.2" stop-color="#27aae1"/><stop offset="0.98" stop-color="#2b3990" stop-opacity="0"/></linearGradient><linearGradient id="linear-gradient-2" x1="25.68" y1="20.57" x2="29.79" y2="-3.03" gradientUnits="userSpaceOnUse"><stop offset="0" stop-color="#fbaa19"/><stop offset="0.04" stop-color="#fba819"/><stop offset="0.23" stop-color="#f9a01b"/><stop offset="0.3" stop-color="#f99f1b" stop-opacity="0.94"/><stop offset="0.44" stop-color="#f99e1b" stop-opacity="0.8"/><stop offset="0.62" stop-color="#f89b1c" stop-opacity="0.56"/><stop offset="0.85" stop-color="#f7971d" stop-opacity="0.23"/><stop offset="1" stop-color="#f7941d" stop-opacity="0"/></linearGradient><linearGradient id="linear-gradient-3" x1="31.28" y1="29.21" x2="41.84" y2="38.05" gradientUnits="userSpaceOnUse"><stop offset="0.13" stop-color="#27aae1"/><stop offset="0.16" stop-color="#27a5de" stop-opacity="0.96"/><stop offset="0.58" stop-color="#296cb4" stop-opacity="0.45"/><stop offset="0.87" stop-color="#2a479a" stop-opacity="0.13"/><stop offset="1" stop-color="#2b3990" stop-opacity="0"/></linearGradient></defs><g id="Layer_2" data-name="Layer 2"><g id="Layer_1-2" data-name="Layer 1"><g id="Color_Variants" data-name="Color Variants"><g id="big_graybg"><circle class="cls-1" cx="24.03" cy="24.03" r="23.53" transform="translate(-0.06 0.06) rotate(-0.14)"/><path class="cls-2" d="M33.67,21.82a3.36,3.36,0,0,1-3.82-.18l-20-15.4a1,1,0,0,0-1.19,0c-.47.41-.92.83-1.36,1.27a.93.93,0,0,0,.13,1.4L26.7,23.23a3.29,3.29,0,0,1,1.23,4.13L19.71,46.18a.79.79,0,0,0,.59,1.1,20.55,20.55,0,0,0,2.32.24.92.92,0,0,0,.92-.58l8-19.13a6.58,6.58,0,0,1,2.73-3.11l11.72-7a1,1,0,0,0,.42-1.09c-.13-.38-.26-.75-.4-1.11a.92.92,0,0,0-1.38-.48Z"/><path class="cls-3" d="M26.7,23.23,7.46,9a1.24,1.24,0,0,0-1.71.23A23.54,23.54,0,0,0,18.32,46.86a1.24,1.24,0,0,0,1.41-.71l8.2-18.79A3.29,3.29,0,0,0,26.7,23.23Z"/><path class="cls-4" d="M33.67,21.82l11.2-6.92a.9.9,0,0,0,.34-1.13,23.53,23.53,0,0,0-35.1-8.7.88.88,0,0,0,0,1.4L29.85,21.64A3.36,3.36,0,0,0,33.67,21.82Z"/><path class="cls-5" d="M31.51,27.81,23.83,46.26a.94.94,0,0,0,.91,1.3A23.54,23.54,0,0,0,46.85,18.27a.72.72,0,0,0-1.06-.43L34.24,24.7A6.58,6.58,0,0,0,31.51,27.81Z"/><circle class="cls-2" cx="24.03" cy="24.03" r="23.53" transform="translate(-0.06 0.06) rotate(-0.14)"/></g></g></g></g></svg>